<?xml version="1.0" encoding="iso-8859-1"?>
<!-- Generator: Adobe Illustrator 19.0.0, SVG Export Plug-In . SVG Version: 6.00 Build 0)  -->
<svg xmlns="http://www.w3.org/2000/svg" xmlns:xlink="http://www.w3.org/1999/xlink" version="1.1" id="Layer_1" x="0px" y="0px" viewBox="0 0 504.798 504.798" style="enable-background:new 0 0 504.798 504.798;" xml:space="preserve" width="512" height="512">
<g>
	<path d="M454.778,204.477c-13.371-3.062-35.684-8.172-38.188-14.351l-0.254-0.851c-0.004-0.015-0.009-0.031-0.014-0.046   c-6.944-22.488-18.191-43.066-33.433-61.174c-3.298-5.35,9.758-24.552,14.078-30.906c2.329-3.425,1.44-8.09-1.985-10.419   c-3.425-2.33-8.09-1.44-10.419,1.985c-12.411,18.253-22.8,35.68-13.739,48.266c0.114,0.158,0.234,0.312,0.359,0.46   c14.066,16.639,24.435,35.563,30.817,56.249c0.001,0.004,0.002,0.008,0.003,0.012l0.29,0.973c0.036,0.12,0.075,0.239,0.117,0.356   c4.991,13.984,26.377,18.882,49.019,24.068c9.751,2.233,19.833,4.542,26.849,7.364c6.522,2.623,7.856,4.677,7.856,5.083   c0,0.812-1.533,2.908-7.279,5.612c-6.443,3.033-15.396,5.583-24.875,8.282c-21.468,6.115-43.668,12.438-48.089,28.023   c-0.049,0.172-0.092,0.347-0.128,0.522c-0.117,0.562-0.241,1.121-0.365,1.68l-0.071,0.321c-0.036,0.162-0.066,0.324-0.091,0.488   c-2.158,14.137,8.563,24.451,18.023,33.55c10.648,10.244,15.384,15.775,12.813,22.218c-1.45,3.632-1.795,4.493-14.292,0.58   c-11.969-3.749-30.057-9.414-46.271,6.801c-0.212,0.212-0.412,0.437-0.597,0.673c-30.719,39.146-76.838,61.597-126.533,61.597   c-12.628,0-25.229-1.479-37.452-4.395c-0.268-0.064-0.539-0.113-0.813-0.147c-21.948-2.741-34.662,15.204-44.882,29.619   c-11.547,16.288-15.997,20.451-23.227,16.664c-2.26-1.184-3.594-2.41-3.963-3.643c-1.094-3.65,3.241-11.48,7.067-18.388   c8.141-14.7,20.442-36.915,0.727-56.631c-0.157-0.157-0.322-0.308-0.492-0.451c-22.482-18.797-39.398-43.291-48.919-70.834   c-0.056-0.163-0.118-0.324-0.186-0.482c-0.354-0.832-0.618-1.622-0.813-2.432c-0.036-0.145-0.075-0.287-0.118-0.429   c-0.019-0.064-0.038-0.128-0.058-0.191l-0.189-0.586c-0.083-0.253-0.165-0.505-0.244-0.76c-0.049-0.16-0.104-0.318-0.165-0.475   c-5.436-14.132-24.201-16.76-42.349-19.301c-18.308-2.563-31.267-4.957-31.267-12.438c0-1.783,0-4.225,6.243-6.138   c5.945-1.821,14.551-2.159,22.874-2.486c16.852-0.662,35.953-1.412,37.809-17.142c0.015-0.126,0.027-0.253,0.035-0.38l0.073-1.149   c0.013-0.179,0.019-0.358,0.019-0.537c0-12.424-13.518-24.679-35.573-43.645c-14.152-12.17-33.533-28.837-33.851-37.286   c-0.029-0.77,0.125-1.387,0.999-2.26c6.674-6.673,22.021-3.449,38.27-0.037c23.062,4.843,49.2,10.334,67.497-7.963   c0.144-0.143,0.281-0.292,0.412-0.446c16.641-19.582,37.947-35.061,61.615-44.763c0.114-0.046,0.227-0.096,0.338-0.148   c0.087-0.041,0.175-0.083,0.272-0.116c0.133-0.045,0.265-0.094,0.396-0.146l0.811-0.332c0.154-0.061,0.307-0.127,0.457-0.199   c10.739-5.093,15.029-21.749,19.996-41.035C212.912,38.02,218.841,15,225.058,15c5.384,0,9.896,13.695,13.521,24.7   c5.881,17.852,12.547,38.086,30.596,42.02c0.201,0.044,0.404,0.079,0.608,0.106c9.201,1.224,18.337,3.259,27.154,6.049   c0.162,0.051,0.326,0.097,0.491,0.137c1.542,0.375,3.115,0.554,4.727,0.554c14.763-0.002,32.42-15.051,52.549-32.21   c20.524-17.496,46.065-39.27,55.699-29.637c6.289,6.29,3.155,18.307-10.164,38.965c-2.244,3.481-1.242,8.123,2.24,10.368   c3.482,2.244,8.123,1.241,10.368-2.24c7.725-11.983,25.817-40.045,8.163-57.7c-9.08-9.08-21.849-9.108-37.95-0.086   c-12.157,6.812-25.339,18.048-38.086,28.915c-14.982,12.772-35.454,30.235-43.81,28.539c-9.441-2.969-19.21-5.146-29.05-6.476   c-9.513-2.331-14.703-18.084-19.287-31.998C247.156,17.796,241.293,0,225.058,0c-17.844,0-23.951,23.713-29.857,46.645   c-2.778,10.788-7.411,28.771-11.764,31.155c-0.09,0.037-0.18,0.074-0.27,0.111L183,77.979c-0.453,0.162-0.91,0.349-1.386,0.566   c-25.717,10.571-48.869,27.374-66.99,48.617c-12.577,12.31-33.434,7.929-53.606,3.692c-19.44-4.083-39.543-8.306-51.959,4.11   c-3.711,3.711-5.572,8.355-5.381,13.43c0.563,14.99,19.263,31.07,39.06,48.095c11.251,9.676,30.015,25.812,30.349,32.105   l-0.035,0.55c-0.197,0.646-1.928,1.468-4.386,2.074c-4.892,1.205-11.793,1.476-19.099,1.763   c-9.278,0.365-18.873,0.741-26.679,3.133C8.96,240.381,6.037,249.606,6.037,256.594c0,21.105,24.5,24.537,44.187,27.293   c12.43,1.741,27.872,3.903,30.362,9.666c0.07,0.219,0.141,0.438,0.212,0.657l0.111,0.343c0.359,1.434,0.825,2.835,1.42,4.267   c10.388,29.912,28.75,56.521,53.122,76.981c10.651,10.865,5.788,21.831-3.462,38.535c-5.771,10.42-11.221,20.263-8.313,29.962   c1.573,5.247,5.399,9.494,11.372,12.623c3.861,2.022,7.733,3.03,11.54,3.03c5.008,0,9.902-1.745,14.501-5.22   c6.142-4.641,11.117-11.658,16.383-19.086c10.611-14.968,18.499-24.721,30.415-23.453c13.225,3.12,26.846,4.701,40.495,4.701   c54.172,0,104.456-24.399,138.038-66.961c9.025-8.795,17.717-6.918,30.88-2.796c10.258,3.213,25.762,8.069,32.707-9.334   c6.593-16.521-6.125-28.757-16.345-38.588c-7.417-7.135-14.428-13.879-13.623-20.27l0.008-0.034   c0.114-0.515,0.228-1.031,0.337-1.547c2.435-7.45,22.802-13.251,37.708-17.497c22.137-6.305,43.045-12.26,43.045-28.321   C501.135,215.094,478.618,209.937,454.778,204.477z"/>
	<path d="M223.7,151.175c-23.268,0-42.197,18.929-42.197,42.197s18.929,42.197,42.197,42.197s42.197-18.929,42.197-42.197   S246.968,151.175,223.7,151.175z M223.7,220.568c-14.997,0-27.197-12.2-27.197-27.197s12.2-27.197,27.197-27.197   s27.197,12.2,27.197,27.197S238.697,220.568,223.7,220.568z"/>
	<path d="M230.053,297.781c-14.914,0-27.047,12.134-27.047,27.048s12.133,27.047,27.047,27.047s27.047-12.133,27.047-27.047   S244.967,297.781,230.053,297.781z M230.053,336.876c-6.643,0-12.047-5.404-12.047-12.047s5.404-12.048,12.047-12.048   s12.047,5.405,12.047,12.048S236.696,336.876,230.053,336.876z"/>
	<path d="M469.635,369.409c-4.335,2.858-8.926,7.221-13.787,11.84c-6.488,6.166-16.293,15.483-21.383,15.483   c-11.57,0-22.597,3.605-31.906,10.429c-0.55,0.359-1.049,0.74-1.507,1.151c-2.204,0.446-8.698-1.088-12.639-2.02   c-11.196-2.647-25.128-5.94-31.608,4.792c-6.979,11.559,4.904,21.879,13.582,29.415c3.3,2.866,9.413,8.174,10.046,10.417   c0.083,29.724,24.29,53.882,54.032,53.882c29.794,0,54.033-24.239,54.033-54.033c0-6.271-1.072-12.43-3.187-18.304   c-0.062-0.171-0.129-0.34-0.203-0.506c-2.435-5.477,0.829-17.886,3.451-27.857c3.858-14.673,7.191-27.345-0.265-34.801   C485.551,366.553,479.477,362.919,469.635,369.409z M474.052,400.283c-3.519,13.38-7.156,27.211-2.779,37.472   c1.476,4.175,2.225,8.551,2.225,13.01c0,21.523-17.51,39.033-39.033,39.033s-39.032-17.51-39.032-39.033   c0-8.381-7.389-14.798-15.211-21.591c-3.217-2.794-8.978-7.797-10.226-10.399c2.737-0.776,10.903,1.154,14.965,2.115   c9.143,2.161,17.778,4.203,24.125,0.145c0.246-0.157,0.481-0.328,0.707-0.512c0.16-0.131,0.324-0.257,0.488-0.384l0.229-0.178   c0.141-0.11,0.279-0.225,0.412-0.345c0.118-0.077,0.233-0.158,0.346-0.241c6.753-5,14.774-7.643,23.196-7.643   c11.08,0,21.57-9.969,31.716-19.61c3.502-3.328,8.388-7.971,11.605-10.16C477.704,386.396,475.486,394.831,474.052,400.283z"/>
	<path d="M354.76,266.875c2.659-0.201,5.287,0.036,7.81,0.705c8.415,2.229,17.164,0.496,24.003-4.753   c6.628-5.087,10.442-12.79,10.464-21.124l0-0.407c0-81.828-66.572-148.4-148.4-148.4c-39.273,0-76.292,15.19-104.24,42.773   c-27.92,27.556-43.598,64.318-44.146,103.516c-0.593,42.489,17.269,83.34,49.006,112.079c3.07,2.78,7.813,2.545,10.594-0.525   s2.545-7.813-0.525-10.594c-28.544-25.846-44.609-62.568-44.076-100.75c0.492-35.232,14.585-68.278,39.684-93.049   c25.122-24.794,58.4-38.449,93.703-38.449c73.557,0,133.4,59.843,133.4,133.4l0,0.358c-0.01,3.712-1.642,7.005-4.597,9.273   c-3.123,2.397-7.144,3.182-11.029,2.152c-4.146-1.098-8.446-1.488-12.78-1.162c-18.775,1.418-33.924,16.656-35.237,35.444   c-0.751,10.748,2.867,20.99,10.188,28.841c5.745,6.16,13.38,10.229,21.589,11.636c-25.231,29.615-62.129,46.857-101.539,46.857   c-0.23,0-0.467,0-0.698-0.002c-21.919-0.113-43.66-5.728-62.873-16.237c-3.633-1.989-8.19-0.653-10.179,2.981   c-1.988,3.634-0.653,8.191,2.981,10.179c21.389,11.7,45.593,17.951,69.994,18.077c0.259,0.001,0.516,0.002,0.775,0.002   c49.71-0.001,95.834-24.664,123.502-66.084c1.771-2.651,1.672-6.132-0.246-8.679c-1.918-2.547-5.237-3.603-8.274-2.631   c-2.25,0.719-4.614,1.084-7.026,1.084c-6.528,0-12.579-2.633-17.037-7.413c-4.453-4.774-6.652-11.012-6.194-17.564   C334.154,276.994,343.356,267.737,354.76,266.875z"/>
	<path d="M329.912,196.648c3.025-0.581,5.414-3.093,5.926-6.115c0.543-3.202-1.131-6.474-4.026-7.927   c-2.71-1.36-6.055-0.922-8.332,1.078c-2.418,2.123-3.192,5.686-1.901,8.627C322.972,195.487,326.505,197.344,329.912,196.648z"/>
	<path d="M424.832,439.548c-1.242-2.944-4.275-4.853-7.48-4.607c-2.968,0.228-5.57,2.23-6.539,5.043   c-2.233,6.484,5.069,12.356,10.947,8.869C424.896,446.992,426.252,442.914,424.832,439.548z"/>
	<path d="M456.392,458.858c-1.27-3.011-4.4-4.905-7.663-4.587c-3.125,0.305-5.773,2.599-6.538,5.638   c-0.716,2.845,0.346,5.93,2.662,7.729c2.663,2.069,6.441,2.09,9.136,0.068C456.718,465.659,457.622,461.999,456.392,458.858z"/>
	<path d="M180.132,263.858c-5.654-3.818-13.172,1.699-11.383,8.235c1.75,6.393,10.717,7.372,13.838,1.535   C184.398,270.241,183.272,266.002,180.132,263.858z"/>
</g>















</svg>
