<svg id="Capa_1" enable-background="new 0 0 512 512" height="512" viewBox="0 0 512 512" width="512" xmlns="http://www.w3.org/2000/svg"><g><path d="m302.009 41.29 5.782-20.237c3.015-10.55-4.908-21.053-15.88-21.053h-52.427l-12.151 68z" fill="#f6d190"/><path d="m239.484 16.516v-16.516h-19.394c-10.973 0-18.896 10.503-15.881 21.054l10.501 36.753 41.29 24.774 41.29-24.774 4.719-16.516h-37.751c-13.682-.001-24.774-11.092-24.774-24.775z" fill="#ecbd83"/><path d="m318.954 157.985c-7.86-1.283-13.405-8.46-13.405-16.423v-34.207l-82.794-33.032v67.239c0 7.964-5.545 15.141-13.405 16.423-39.232 6.404-69.175 40.454-69.175 81.498v249c0 9.121 7.395 16.516 16.516 16.516h214.923l16.516-9.516v-256c-.001-41.043-29.944-75.093-69.176-81.498z" fill="#966a5b"/><path d="m256 107.355h49.548v-33.032h-99.097v67.239c0 7.964-5.546 15.141-13.406 16.424-39.232 6.404-69.175 40.454-69.175 81.498v256c0 9.122 7.395 16.516 16.516 16.516h231.226c9.121 0 16.516-7.395 16.516-16.516h-165.16c-22.804 0-41.29-18.486-41.29-41.29v-217.966c0-18.602 9.297-35.974 24.774-46.294 15.478-10.32 24.774-27.691 24.774-46.294v-11.511c0-13.682 11.092-24.774 24.774-24.774z" fill="#785353"/><path d="m313.806 57.806h-115.612c-9.121 0-16.516 7.394-16.516 16.516 0 9.121 7.395 16.516 16.516 16.516h115.613c9.121 0 16.516-7.395 16.516-16.516s-7.395-16.516-16.517-16.516z" fill="#966a5b"/><path d="m260.954 218.337c-2.881-2.231-7.026-2.231-9.908 0-23.434 18.149-39.685 45.352-43.654 76.468l48.608 109.84 48.609-109.825c-3.965-31.122-20.217-58.331-43.655-76.483z" fill="#b3e59f"/><path d="m256 355.097-49.285-37.519c2.425 36.198 21.393 67.78 49.285 87.068 27.884-19.282 46.848-50.852 49.282-87.036z" fill="#95d6a4"/><path d="m305.548 309.677c0-5.027-.322-10.001-.939-14.857l-40.351 40.341v-54.387c0-4.565-3.694-8.258-8.258-8.258s-8.258 3.694-8.258 8.258v54.387l-40.349-40.356c-.617 4.856-.941 9.845-.941 14.872 0 2.726.08 5.221.264 7.9l41.027 40.939v95.677c0 4.565 3.694 8.258 8.258 8.258s8.258-3.694 8.258-8.258v-95.677l41.024-40.907c.183-2.678.265-5.205.265-7.932z" fill="#78c2a4"/></g></svg>